<?xml version="1.0" standalone="no"?>
<!DOCTYPE svg PUBLIC "-//W3C//DTD SVG 20010904//EN"
 "http://www.w3.org/TR/2001/REC-SVG-20010904/DTD/svg10.dtd">
<svg version="1.0" xmlns="http://www.w3.org/2000/svg"
 width="167.000000pt" height="167.000000pt" viewBox="0 0 167.000000 167.000000"
 preserveAspectRatio="xMidYMid meet">

<g transform="translate(0.000000,167.000000) scale(0.100000,-0.100000)"
fill="#000000" stroke="none">
<path d="M741 1285 c-170 -48 -291 -183 -322 -359 -33 -194 72 -391 258 -479
64 -30 74 -32 183 -32 112 0 117 1 192 37 49 23 97 56 127 86 170 170 172 457
6 629 -52 53 -68 61 -95 43 -13 -8 -11 -12 10 -27 116 -79 183 -242 160 -389
-12 -74 -36 -134 -53 -134 -41 0 -102 71 -138 162 -27 71 -71 151 -86 161 -21
13 -15 22 22 36 35 12 75 53 75 77 0 36 -122 5 -172 -43 -38 -36 -35 -13 6 50
37 58 103 103 209 143 l62 24 -75 -2 c-91 -4 -172 -39 -237 -105 -24 -24 -63
-50 -86 -58 -23 -8 -49 -24 -57 -36 -14 -20 -64 -72 -147 -153 -18 -17 -33
-37 -33 -43 0 -7 23 -35 50 -61 29 -28 50 -57 50 -70 0 -57 37 -16 42 48 l3
35 85 6 c96 7 116 13 131 41 6 11 13 17 16 15 20 -20 -62 -87 -107 -87 -24 0
-25 -2 -23 -65 1 -35 -2 -67 -7 -70 -4 -3 -6 -14 -3 -25 3 -11 1 -26 -4 -33
-10 -14 -9 -84 2 -110 13 -31 -7 -39 -55 -22 -107 38 -192 114 -238 213 -23
50 -26 70 -27 167 0 104 2 114 32 176 72 147 249 245 401 223 52 -8 115 13 86
29 -30 17 -184 18 -243 2z m59 -285 c0 -11 -48 -25 -56 -17 -4 3 -3 10 1 16 8
14 55 14 55 1z m-210 -120 c0 -5 -4 -10 -10 -10 -5 0 -10 5 -10 10 0 6 5 10
10 10 6 0 10 -4 10 -10z m30 -50 c0 -5 -4 -10 -10 -10 -5 0 -10 5 -10 10 0 6
5 10 10 10 6 0 10 -4 10 -10z"/>
</g>
</svg>
